<?xml version="1.0" encoding="UTF-8" standalone="no"?>
<svg
   xmlns:dc="http://purl.org/dc/elements/1.1/"
   xmlns:cc="http://creativecommons.org/ns#"
   xmlns:rdf="http://www.w3.org/1999/02/22-rdf-syntax-ns#"
   xmlns:svg="http://www.w3.org/2000/svg"
   xmlns="http://www.w3.org/2000/svg"
   xmlns:xlink="http://www.w3.org/1999/xlink"
   xmlns:sodipodi="http://sodipodi.sourceforge.net/DTD/sodipodi-0.dtd"
   xmlns:inkscape="http://www.inkscape.org/namespaces/inkscape"
   width="24in"
   height="5.55556in"
   viewBox="0 0 1728 400"
   id="svg2"
   version="1.1"
   inkscape:version="0.48.5 r10040"
   sodipodi:docname="glass_bg_replay.svg">
  <metadata
     id="metadata9">
    <rdf:RDF>
      <cc:Work
         rdf:about="">
        <dc:format>image/svg+xml</dc:format>
        <dc:type
           rdf:resource="http://purl.org/dc/dcmitype/StillImage" />
        <dc:title />
      </cc:Work>
    </rdf:RDF>
  </metadata>
  <defs
     id="defs7">
    <linearGradient
       id="linearGradient3762">
      <stop
         style="stop-color:#cdcdcd;stop-opacity:1;"
         offset="0"
         id="stop3764" />
      <stop
         style="stop-color:#ffffff;stop-opacity:0;"
         offset="1"
         id="stop3766" />
    </linearGradient>
    <linearGradient
       inkscape:collect="always"
       xlink:href="#linearGradient3762"
       id="linearGradient3850"
       gradientUnits="userSpaceOnUse"
       x1="1387.3226"
       y1="838.03271"
       x2="1099.8501"
       y2="-652.6062"
       gradientTransform="translate(2.5e-7,2)" />
    <linearGradient
       inkscape:collect="always"
       xlink:href="#linearGradient3762"
       id="linearGradient2987"
       gradientUnits="userSpaceOnUse"
       gradientTransform="translate(-13.714285,444.77549)"
       x1="1387.3226"
       y1="838.03271"
       x2="1099.8501"
       y2="-652.6062" />
  </defs>
  <sodipodi:namedview
     pagecolor="#ffffff"
     bordercolor="#666666"
     borderopacity="1"
     objecttolerance="10"
     gridtolerance="10"
     guidetolerance="10"
     inkscape:pageopacity="0"
     inkscape:pageshadow="2"
     inkscape:window-width="1920"
     inkscape:window-height="1005"
     id="namedview5"
     showgrid="false"
     inkscape:zoom="0.40833335"
     inkscape:cx="317.85815"
     inkscape:cy="239.54652"
     inkscape:window-x="-9"
     inkscape:window-y="-9"
     inkscape:window-maximized="1"
     inkscape:current-layer="svg2" />
  <path
     id="Auswahl"
     d="m 84,329 -30,0 -14,0 C 22.55,328.92 7.9500003,319.9 2.1000003,303 0.32000025,297.86 0.01000025,293.36 2.5e-7,288 l 0,-158 0,-87 C 0.28000025,19.09 17.69,4.04 41,4 l 1247,0 338,0 63,0 c 23.91,0.28 38.96,17.69 39,41 l 0,158 0,87 c -0.28,23.91 -17.69,38.96 -41,39 l -321,0 0,36 c 0,6.49 0.66,14.1 -2.44,20 -4.88,9.3 -13.01,10.99 -22.56,11 l -188,0 -602,0 -144,0 -16,0 c -11.83,0 -23.4,-0.51 -27.78,-14 -1.26,-3.89 -1.21,-7 -1.22,-11 l 0,-42 z"
     style="fill:url(#linearGradient3850);fill-opacity:1;stroke:#ffffff;stroke-width:1.60000002;stroke-miterlimit:4;stroke-opacity:1;stroke-dasharray:none"
     inkscape:connector-curvature="0"
     sodipodi:nodetypes="ccccccccccccccccscccccscccc" />
</svg>
