<?xml version="1.0" encoding="UTF-8" standalone="no"?>
<!-- Created with Inkscape (http://www.inkscape.org/) -->

<svg
   xmlns:dc="http://purl.org/dc/elements/1.1/"
   xmlns:cc="http://creativecommons.org/ns#"
   xmlns:rdf="http://www.w3.org/1999/02/22-rdf-syntax-ns#"
   xmlns:svg="http://www.w3.org/2000/svg"
   xmlns="http://www.w3.org/2000/svg"
   xmlns:xlink="http://www.w3.org/1999/xlink"
   xmlns:sodipodi="http://sodipodi.sourceforge.net/DTD/sodipodi-0.dtd"
   xmlns:inkscape="http://www.inkscape.org/namespaces/inkscape"
   version="1.0"
   inkscape:output_extension="org.inkscape.output.svg.inkscape"
   sodipodi:docname="ico_gpu.svg"
   inkscape:version="0.48.5 r10040"
   sodipodi:version="0.32"
   id="svg2"
   height="308.08557"
   width="316.28409">
  <sodipodi:namedview
     id="base"
     pagecolor="#ffffff"
     bordercolor="#666666"
     borderopacity="1.0"
     gridtolerance="10000"
     guidetolerance="10"
     objecttolerance="10"
     inkscape:pageopacity="0.0"
     inkscape:pageshadow="2"
     inkscape:zoom="1.3032599"
     inkscape:cx="131.22445"
     inkscape:cy="264.12624"
     inkscape:document-units="px"
     inkscape:current-layer="layer1"
     showgrid="false"
     inkscape:window-width="1920"
     inkscape:window-height="1005"
     inkscape:window-x="-9"
     inkscape:window-y="-9"
     inkscape:window-maximized="1" />
  <defs
     id="defs4">
    <linearGradient
       id="linearGradient3355"
       y2="597.60999"
       xlink:href="#linearGradient3064"
       gradientUnits="userSpaceOnUse"
       x2="466"
       y1="606.85999"
       x1="429.5"
       inkscape:collect="always" />
    <linearGradient
       id="linearGradient3064"
       inkscape:collect="always">
      <stop
         id="stop3066"
         style="stop-color:#c8ab37"
         offset="0" />
      <stop
         id="stop3068"
         style="stop-color:#fff6d5"
         offset="1" />
    </linearGradient>
    <linearGradient
       id="linearGradient3357"
       y2="462.10999"
       xlink:href="#linearGradient3064"
       gradientUnits="userSpaceOnUse"
       x2="621.5"
       y1="577.10999"
       x1="445.25"
       inkscape:collect="always" />
    <linearGradient
       id="linearGradient3359"
       y2="353.10999"
       xlink:href="#linearGradient3084"
       gradientUnits="userSpaceOnUse"
       x2="671.5"
       y1="352.85999"
       x1="647.75"
       inkscape:collect="always" />
    <linearGradient
       id="linearGradient3084"
       inkscape:collect="always">
      <stop
         id="stop3086"
         style="stop-color:#4d4d4d"
         offset="0" />
      <stop
         id="stop3092"
         style="stop-color:#808080"
         offset=".65289" />
      <stop
         id="stop3088"
         style="stop-color:#cccccc"
         offset="1" />
    </linearGradient>
    <radialGradient
       id="radialGradient3369"
       gradientUnits="userSpaceOnUse"
       cy="340.35001"
       cx="598.91998"
       gradientTransform="matrix(-0.99249,0.74548,-0.43616,-0.58068,1341.8,107.72)"
       r="317.76001"
       inkscape:collect="always">
      <stop
         id="stop3206"
         style="stop-color:#aa0000"
         offset="0" />
      <stop
         id="stop3208"
         style="stop-color:#d40000"
         offset="1" />
    </radialGradient>
    <linearGradient
       id="linearGradient3371"
       y2="231.36"
       gradientUnits="userSpaceOnUse"
       x2="611.51001"
       y1="231.36"
       x1="398"
       inkscape:collect="always">
      <stop
         id="stop3249"
         style="stop-color:#333333"
         offset="0" />
      <stop
         id="stop3257"
         style="stop-color:#1a1a1a"
         offset=".32084" />
      <stop
         id="stop3251"
         style="stop-color:#4d4d4d"
         offset="1" />
    </linearGradient>
    <radialGradient
       id="radialGradient3373"
       gradientUnits="userSpaceOnUse"
       cy="246.62"
       cx="501"
       gradientTransform="matrix(1.0916,0.028725,-0.01733,0.65866,-41.599,75.032)"
       r="69.625"
       inkscape:collect="always">
      <stop
         id="stop3172"
         style="stop-color:#999999"
         offset="0" />
      <stop
         id="stop3178"
         style="stop-color:#4d4e5b"
         offset=".79567" />
      <stop
         id="stop3174"
         style="stop-color:#252129"
         offset="1" />
    </radialGradient>
    <radialGradient
       id="radialGradient3375"
       xlink:href="#linearGradient3186"
       gradientUnits="userSpaceOnUse"
       cy="504.70999"
       cx="98.995003"
       gradientTransform="matrix(1.4786,-1.0684,0.40825,0.565,-253.43,287.48)"
       r="165.46001"
       inkscape:collect="always" />
    <linearGradient
       id="linearGradient3186"
       inkscape:collect="always">
      <stop
         id="stop3188"
         style="stop-color:#e55266"
         offset="0" />
      <stop
         id="stop3190"
         style="stop-color:#ff2a2a"
         offset="1" />
    </linearGradient>
    <radialGradient
       id="radialGradient3377"
       xlink:href="#linearGradient3186"
       gradientUnits="userSpaceOnUse"
       cy="504.70999"
       cx="98.995003"
       gradientTransform="matrix(1.4147,-1.1517,-0.44009,-0.54057,342.93,937.22)"
       r="165.46001"
       inkscape:collect="always" />
    <linearGradient
       id="linearGradient3379"
       y2="547.35999"
       gradientUnits="userSpaceOnUse"
       x2="392.92999"
       y1="547.35999"
       x1="-13"
       inkscape:collect="always">
      <stop
         id="stop3477"
         style="stop-color:#1f2220"
         offset="0" />
      <stop
         id="stop3483"
         style="stop-color:#808080"
         offset=".071442" />
      <stop
         id="stop3479"
         style="stop-color:#b3b3b3"
         offset="1" />
    </linearGradient>
    <radialGradient
       id="radialGradient3381"
       xlink:href="#linearGradient3099"
       gradientUnits="userSpaceOnUse"
       cy="566.94"
       cx="35.5"
       gradientTransform="matrix(0.87239,0.88219,-0.72278,0.71475,414.3,130.45)"
       r="12.752"
       inkscape:collect="always" />
    <linearGradient
       id="linearGradient3099">
      <stop
         id="stop3101"
         style="stop-color:#666666"
         offset="0" />
      <stop
         id="stop3103"
         style="stop-color:#f9f9f9"
         offset="1" />
    </linearGradient>
    <linearGradient
       id="linearGradient3383"
       y2="562.56"
       xlink:href="#linearGradient3075"
       gradientUnits="userSpaceOnUse"
       x2="54.280998"
       y1="544.94"
       x1="36.688"
       inkscape:collect="always" />
    <linearGradient
       id="linearGradient3075">
      <stop
         id="stop3077"
         style="stop-color:#808080"
         offset="0" />
      <stop
         id="stop3083"
         style="stop-color:#ececec"
         offset=".036639" />
      <stop
         id="stop3093"
         style="stop-color:#4d4d4d"
         offset=".10714" />
      <stop
         id="stop3095"
         style="stop-color:#666666"
         offset=".69014" />
      <stop
         id="stop3079"
         style="stop-color:#999999"
         offset="1" />
    </linearGradient>
    <linearGradient
       id="linearGradient3389"
       y2="620.59998"
       xlink:href="#linearGradient3075"
       gradientUnits="userSpaceOnUse"
       x2="113.09"
       y1="559.19"
       x1="57.491001"
       inkscape:collect="always" />
    <linearGradient
       id="linearGradient3391"
       y2="632.48999"
       gradientUnits="userSpaceOnUse"
       x2="192.88"
       y1="592.85999"
       x1="161.75"
       inkscape:collect="always">
      <stop
         id="stop3303"
         style="stop-color:#808080"
         offset="0" />
      <stop
         id="stop3305"
         style="stop-color:#ececec"
         offset=".25316" />
      <stop
         id="stop3307"
         style="stop-color:#4d4d4d"
         offset=".59328" />
      <stop
         id="stop3309"
         style="stop-color:#666666"
         offset=".86542" />
      <stop
         id="stop3311"
         style="stop-color:#999999"
         offset="1" />
    </linearGradient>
    <linearGradient
       y2="353.10999"
       x2="671.5"
       y1="352.85999"
       x1="647.75"
       gradientUnits="userSpaceOnUse"
       id="linearGradient3362"
       xlink:href="#linearGradient3084"
       inkscape:collect="always" />
    <linearGradient
       y2="353.10999"
       x2="671.5"
       y1="352.85999"
       x1="647.75"
       gradientUnits="userSpaceOnUse"
       id="linearGradient3364"
       xlink:href="#linearGradient3084"
       inkscape:collect="always" />
    <linearGradient
       y2="353.10999"
       x2="671.5"
       y1="352.85999"
       x1="647.75"
       gradientUnits="userSpaceOnUse"
       id="linearGradient3366"
       xlink:href="#linearGradient3084"
       inkscape:collect="always" />
    <linearGradient
       y2="353.10999"
       x2="671.5"
       y1="352.85999"
       x1="647.75"
       gradientUnits="userSpaceOnUse"
       id="linearGradient3368-1"
       xlink:href="#linearGradient3084"
       inkscape:collect="always" />
    <radialGradient
       r="12.752"
       cy="566.94"
       cx="35.5"
       gradientTransform="matrix(0.87239,0.88219,-0.72278,0.71475,414.3,130.45)"
       gradientUnits="userSpaceOnUse"
       id="radialGradient3370"
       xlink:href="#linearGradient3099"
       inkscape:collect="always" />
    <linearGradient
       y2="562.56"
       x2="54.280998"
       y1="544.94"
       x1="36.688"
       gradientUnits="userSpaceOnUse"
       id="linearGradient3372"
       xlink:href="#linearGradient3075"
       inkscape:collect="always" />
    <radialGradient
       r="12.752"
       cy="566.94"
       cx="35.5"
       gradientTransform="matrix(0.87239,0.88219,-0.72278,0.71475,414.3,130.45)"
       gradientUnits="userSpaceOnUse"
       id="radialGradient3374"
       xlink:href="#linearGradient3099"
       inkscape:collect="always" />
    <linearGradient
       y2="562.56"
       x2="54.280998"
       y1="544.94"
       x1="36.688"
       gradientUnits="userSpaceOnUse"
       id="linearGradient3376"
       xlink:href="#linearGradient3075"
       inkscape:collect="always" />
    <linearGradient
       y2="620.59998"
       x2="113.09"
       y1="559.19"
       x1="57.491001"
       gradientUnits="userSpaceOnUse"
       id="linearGradient3378"
       xlink:href="#linearGradient3075"
       inkscape:collect="always" />
    <radialGradient
       r="12.752"
       cy="566.94"
       cx="35.5"
       gradientTransform="matrix(0.87239,0.88219,-0.72278,0.71475,414.3,130.45)"
       gradientUnits="userSpaceOnUse"
       id="radialGradient3380"
       xlink:href="#linearGradient3099"
       inkscape:collect="always" />
    <linearGradient
       y2="562.56"
       x2="54.280998"
       y1="544.94"
       x1="36.688"
       gradientUnits="userSpaceOnUse"
       id="linearGradient3382"
       xlink:href="#linearGradient3075"
       inkscape:collect="always" />
  </defs>
  <metadata
     id="metadata7">
    <rdf:RDF>
      <cc:Work
         rdf:about="">
        <dc:format>image/svg+xml</dc:format>
        <dc:type
           rdf:resource="http://purl.org/dc/dcmitype/StillImage" />
        <dc:title />
      </cc:Work>
    </rdf:RDF>
  </metadata>
  <g
     inkscape:label="fg"
     inkscape:groupmode="layer"
     id="layer1"
     style="display:inline"
     transform="translate(-52.39682,-404.56278)">
    <g
       id="g3289"
       transform="matrix(0.40896807,0,0,0.54904473,-183.32833,313.90761)">
      <g
         id="g3070"
         transform="translate(600,0)">
        <path
           id="path3066"
           sodipodi:nodetypes="ccccccccccccccccccccccccccccscccc"
           style="fill:#f7d254;stroke:#000000;stroke-width:1px"
           inkscape:connector-curvature="0"
           d="m 744,320.11 v 3.875 l -130.05,107.18 c 0,0 -2.2348,1.1614 -1.9445,2.8284 0,2.6781 8.2728,4.5567 10.96,3.0052 l 11.49,-7.955 7.6014,3.3588 4.4194,8.4853 -23.511,19.092 -15.203,-5.6569 -4.5962,0.53033 21.744,10.607 c 2.5234,1.4569 -3.2978,6.9798 -6.1872,9.3692 l -144.6,121.45 -22.981,-9.8995 v 1.2374 l 18.208,9.0156 -0.17678,4.9498 -23.335,18.385 -9.7227,-3.7123 -23.865,-10.253 -8.4853,0.35355 0.70711,3.5355 19.269,8.4853 0.17678,3.8891 -18.208,14.319 -22.627,-9.1924 -41.575,12.471 c 0,0 -22,11 -22,9 0,-2 -281,-106 -281,-106 l 185,-73.5 233.29,-230.17 z" />
        <path
           id="path3048"
           sodipodi:nodetypes="ccccssccssccssccsscccccc"
           style="fill:#a70024;stroke:#000000;stroke-width:1px"
           inkscape:connector-curvature="0"
           d="m 381.75,620.59 11.137,5.4801 16.175,-12.993 -8.8388,-4.9497 c 0,0 -1.149,-3.2704 1.3258,-5.4801 2.4749,-2.2097 8.1317,-2.3865 11.225,-1.2374 3.0936,1.149 17.324,7.2478 17.324,7.2478 l 22.627,-18.738 c 0,0 -9.6343,-4.1543 -8.7504,-6.2756 0.88388,-2.1213 3.0052,-3.4471 6.0104,-3.0936 3.0052,0.35356 9.7227,4.0659 9.7227,4.0659 l 149.11,-125.61 c 0,0 -8.7504,-4.2426 -8.9272,-5.3917 -0.17678,-1.149 0.35355,-3.6239 3.7123,-3.7123 3.35875,-0.0884 5.4801,-0.53033 5.4801,-0.53033 l 12.109,-10.783 c 0,0 -6.6291,-1.4142 -10.165,-3.8007 -3.5355,-2.3865 -1.8562,-5.1265 0.88388,-7.4246 2.74,-2.2981 96.432,-79.991 96.432,-79.991 l 33.54,-27.93 -278.14,-103.84 -435.25,325.75 300.5,121.5 z" />
        <path
           id="path3050"
           sodipodi:nodetypes="ccccc"
           style="fill:url(#linearGradient3355);stroke:#000000;stroke-width:1px"
           inkscape:connector-curvature="0"
           d="m 427.75,607.11 15.75,7.25 22.75,-17.5 -16.75,-8 z" />
        <path
           id="path3052"
           style="fill:url(#linearGradient3357);stroke:#000000;stroke-width:1px"
           inkscape:connector-curvature="0"
           d="m 457.5,583.36 14,6.75 L 622,464.36 602,455.11 454.5,581.86 z" />
      </g>
      <g
         id="g3132"
         transform="translate(600,0)">
        <g
           id="g3124"
           transform="matrix(1.0736,0,0,1.1595,-37.807,-118.47)">
          <path
             id="path3126"
             d="m 646.75,340.36 c 0,6.25 1,20.5 1.25,21.5 0.25,1 -0.75,9.25 13.5,9.5 14.25,0.25 9.75,-12.75 10.5,-19.5 0.75,-6.75 1.5,-13 0.5,-14.25 -1,-1.25 -20.75,-3.25 -25.75,2.75 z"
             style="fill:url(#linearGradient3362)"
             inkscape:connector-curvature="0" />
          <path
             id="path3128"
             d="m 651.75,344.11 c 17.75,6 20.75,-3.25 20.75,-6 0,-2.75 -4.75,-7.25 -14,-7.5 -9.25,-0.25 -12,6 -12,9.25 0,3.25 5.25,4.25 5.25,4.25 z"
             style="fill:#e6e6e6"
             inkscape:connector-curvature="0" />
        </g>
        <g
           id="g3116"
           transform="matrix(1.0736,0,0,1.0736,-11.557,-78.833)">
          <path
             id="path3118"
             style="fill:url(#linearGradient3364)"
             inkscape:connector-curvature="0"
             d="m 646.75,340.36 c 0,6.25 1,20.5 1.25,21.5 0.25,1 -0.75,9.25 13.5,9.5 14.25,0.25 9.75,-12.75 10.5,-19.5 0.75,-6.75 1.5,-13 0.5,-14.25 -1,-1.25 -20.75,-3.25 -25.75,2.75 z" />
          <path
             id="path3120"
             style="fill:#e6e6e6"
             inkscape:connector-curvature="0"
             d="m 651.75,344.11 c 17.75,6 20.75,-3.25 20.75,-6 0,-2.75 -4.75,-7.25 -14,-7.5 -9.25,-0.25 -12,6 -12,9.25 0,3.25 5.25,4.25 5.25,4.25 z" />
        </g>
        <g
           id="g3108"
           transform="matrix(1.2453,0,0,1.2453,-126.11,-120.11)">
          <path
             id="path3110"
             d="m 646.75,340.36 c 0,6.25 1,20.5 1.25,21.5 0.25,1 -0.75,9.25 13.5,9.5 14.25,0.25 9.75,-12.75 10.5,-19.5 0.75,-6.75 1.5,-13 0.5,-14.25 -1,-1.25 -20.75,-3.25 -25.75,2.75 z"
             style="fill:url(#linearGradient3366)"
             inkscape:connector-curvature="0" />
          <path
             id="path3112"
             d="m 651.75,344.11 c 17.75,6 20.75,-3.25 20.75,-6 0,-2.75 -4.75,-7.25 -14,-7.5 -9.25,-0.25 -12,6 -12,9.25 0,3.25 5.25,4.25 5.25,4.25 z"
             style="fill:#e6e6e6"
             inkscape:connector-curvature="0" />
        </g>
        <g
           id="g3100"
           transform="translate(18.75,-14)">
          <path
             id="path3102"
             style="fill:url(#linearGradient3368-1)"
             inkscape:connector-curvature="0"
             d="m 646.75,340.36 c 0,6.25 1,20.5 1.25,21.5 0.25,1 -0.75,9.25 13.5,9.5 14.25,0.25 9.75,-12.75 10.5,-19.5 0.75,-6.75 1.5,-13 0.5,-14.25 -1,-1.25 -20.75,-3.25 -25.75,2.75 z" />
          <path
             id="path3104"
             style="fill:#e6e6e6"
             inkscape:connector-curvature="0"
             d="m 651.75,344.11 c 17.75,6 20.75,-3.25 20.75,-6 0,-2.75 -4.75,-7.25 -14,-7.5 -9.25,-0.25 -12,6 -12,9.25 0,3.25 5.25,4.25 5.25,4.25 z" />
        </g>
        <g
           id="g3094">
          <path
             id="path3082"
             d="m 646.75,340.36 c 0,6.25 1,20.5 1.25,21.5 0.25,1 -0.75,9.25 13.5,9.5 14.25,0.25 9.75,-12.75 10.5,-19.5 0.75,-6.75 1.5,-13 0.5,-14.25 -1,-1.25 -20.75,-3.25 -25.75,2.75 z"
             style="fill:url(#linearGradient3359)"
             inkscape:connector-curvature="0" />
          <path
             id="path3080"
             d="m 651.75,344.11 c 17.75,6 20.75,-3.25 20.75,-6 0,-2.75 -4.75,-7.25 -14,-7.5 -9.25,-0.25 -12,6 -12,9.25 0,3.25 5.25,4.25 5.25,4.25 z"
             style="fill:#e6e6e6"
             inkscape:connector-curvature="0" />
        </g>
      </g>
      <g
         id="g3266"
         transform="translate(600,0)">
        <path
           id="path3159"
           style="fill:url(#radialGradient3369);stroke:#000000;stroke-width:1px"
           inkscape:connector-curvature="0"
           d="m 303.5,629.86 c 0,0 41.5,-32 54.5,-34 13,-2 66,-36 79.5,-50.5 13.5,-14.5 68,-75 71.5,-76.5 3.5,-1.5 4.5,2 8.5,2.5 4,0.5 11.5,-0.5 12,-4 0.5,-3.5 2,-12 0,-14.5 -2,-2.5 17,-19 17,-19 0,0 15.5,1.5 18.5,-0.5 3,-2 4.5,-5.5 4.5,-8.5 0,-3 -1,-7 1.5,-9 2.5,-2 28,-28 28,-28 0,0 33.5,-28.5 41.5,-33.5 8,-5 19.5,-35.5 19.5,-35.5 0,0 13,2 12.5,-7 -0.5,-9 0.5,-25.5 -9.5,-28.5 -10,-3 -8,-5 -8,-25 0,-20 -15,-39.5 -29,-50.5 -14,-11 -32.5,-19 -50,-26.5 -17.5,-7.5 -58,-12.5 -83.5,-12 -25.5,0.5 -45.5,7 -58.5,10.5 -13,3.5 -39.5,13 -58,35 -18.5,22 -6.5,12.5 -45,41 -38.5,28.5 -147,108.5 -147,108.5 l -143.5,107 -2.5,49 z" />
        <path
           id="path3198"
           style="fill:#6f373d"
           inkscape:connector-curvature="0"
           d="m 365.57,222.93 c -24.749,37.477 -3.5355,54.447 16.263,70.711 19.799,16.263 69.296,36.062 96.874,36.77 27.577,0.70711 83.439,-0.70711 111.02,-11.314 27.577,-10.607 65.054,-36.77 64.347,-48.083 -0.7071,-11.314 -4.9497,-32.527 -7.7782,-39.598 -2.8284,-7.0711 -31.82,-38.184 -65.054,-48.79 -33.234,-10.607 -67.882,-13.435 -95.459,-12.728 -27.577,0.70711 -61.518,12.728 -82.024,21.92 -20.506,9.1924 -38.184,31.113 -38.184,31.113 z" />
        <path
           id="path3202"
           sodipodi:nodetypes="cssssssssssscsccc"
           style="fill:#27232a"
           inkscape:connector-curvature="0"
           d="m 300.52,582.84 c 0,0 93.338,-69.296 113.84,-93.338 20.506,-24.042 98.995,-98.995 111.02,-107.48 12.021,-8.4853 65.761,-44.548 72.832,-52.326 7.0711,-7.7782 5.6568,-4.9498 -7.7782,-5.6568 -13.435,-0.70711 -53.033,12.728 -86.974,9.1924 -33.941,-3.5355 -50.205,42.426 -70.711,55.154 -20.506,12.728 -111.72,44.548 -118.09,47.376 -6.364,2.8284 -24.042,12.021 -37.477,-0.70711 -13.435,-12.72811 -33.941,-14.849 -22.627,-26.87 11.314,-12.021 33.234,-36.062 33.234,-45.255 0,-9.1924 4.9498,-25.456 25.456,-36.77 20.5062,-11.314 59.397,-37.477 59.397,-37.477 0,0 -19.092,-27.577 -14.142,-43.841 4.9498,-16.263 5.6568,-14.849 5.6568,-14.849 l -319.61,236.9 z" />
        <g
           id="g3259">
          <path
             id="path3214"
             d="m 502.2,177.38 c -44.678,0.12455 -117.05,20.803 -116.95,65.499 0.0911,45.022 73.074,64.91 118.07,65.499 45.633,0.59793 120.87,-17.608 121.43,-63.26 0.57566,-46.686 -75.88,-67.869 -122.55,-67.738 z"
             style="fill:url(#linearGradient3371);stroke:#000000;stroke-width:1px"
             inkscape:connector-curvature="0" />
          <g
             id="g3180">
            <path
               id="path3166"
               sodipodi:nodetypes="scccccs"
               style="fill:url(#radialGradient3373)"
               inkscape:connector-curvature="0"
               d="m 504.75,216.61 c -26.998,0.0279 -68,13.933 -68,44 v 42.851 l 74,3.8995 64.25,-0.77817 v -44.722 c 0,-34.008 -42.396,-45.279 -70.25,-45.25 z" />
            <path
               id="path3168"
               sodipodi:nodetypes="aaaaa"
               style="fill:#1a1a1a"
               inkscape:connector-curvature="0"
               d="m 447.5,249.61 c 0.29952,-22.175 36.824,-31.009 59,-30.75 22.265,0.26023 58.799,9.9852 58.5,32.25 -0.29943,22.323 -37.177,31.09 -59.5,30.75 -22.118,-0.33691 -58.299,-10.131 -58,-32.25 z" />
          </g>
          <path
             id="path3161"
             d="m 496.66,170.84 c -42,0 -103.66,17.031 -122.16,48.531 -18.5,31.5 -2,50.5 29,73 31,22.5 108,37 176.5,17 68.5,-20 71.5,-53.5 62,-77 -9.5,-23.5 -60.628,-52.392 -90.562,-56.812 -19.134,-2.8254 -26.281,-3.7188 -54.781,-4.7188 z m 6.84,13.54 c 41.7,-0.1162 110.01,18.803 109.5,60.5 -0.50296,40.773 -67.727,57.034 -108.5,56.5 -40.208,-0.52663 -105.42,-18.289 -105.5,-58.5 -0.0808,-39.92 64.58,-58.389 104.5,-58.5 z"
             style="fill:#62626a"
             inkscape:connector-curvature="0" />
        </g>
        <path
           id="path3184"
           sodipodi:nodetypes="csscsscc"
           style="fill:url(#radialGradient3375)"
           inkscape:connector-curvature="0"
           d="m 57.276,470.41 c 0,0 48.79,-39.598 99.702,-72.125 50.912,-32.527 188.09,-123.74 195.16,-127.99 7.0711,-4.2426 14.849,8.4853 14.849,8.4853 0,0 -17.678,6.364 -82.024,57.983 -64.347,51.619 -147.79,109.6 -158.39,122.33 -10.607,12.728 -35.355,27.577 -35.355,27.577 z" />
        <path
           id="path3194"
           sodipodi:nodetypes="csscsscc"
           d="m 273.2,568.76 c 0,0 24.315,-15.885 68.91,-56.643 44.595,-40.758 177.93,-166.81 183.86,-172.55 5.9282,-5.7321 -14.252,-3.1044 -14.252,-3.1044 0,0 -12.667,13.497 -79.181,62.291 -66.514,48.794 -146.24,113.68 -161.28,120.63 -15.039,6.951 -31.331,33.72 -31.331,33.72 z"
           style="fill:url(#radialGradient3377)"
           inkscape:connector-curvature="0" />
      </g>
      <g
         id="g3518"
         transform="translate(600,0)">
        <path
           id="path3057"
           d="m 353.88,595.49 14.5,18.875 17.75,9 c 4.2537,2.4559 4.125,5.2216 4.125,12.125 v 17.875 c 0,3.0052 -2.6212,5.8748 -8.25,2.625 l -16,-8.125 -12.375,6.75 v 7 l 14.25,16.875 18.875,9.25 c 4.2537,2.4559 4.375,3.3772 4.375,10.625 v 16.625 c 0,4.4511 -1.4236,8.7285 -5.5,6.375 l -19.375,-9.875 -13.75,7 -299,-133.12 -3.375,-9.125 -1.625,-0.5 -3.375,2.75 -5.7038,-8.7254 -11.49,1.2374 -7.7782,-7.2478 h -6.0104 v 16.087 l -5.5644,3.2126 c -1.4052,0.8113 -1.7409,-0.50032 -1.7409,-1.7409 v -11.371 c 0.21046,-0.78544 -0.70733,-1.6371 -1.849,-0.49544 l -7.2494,7.2494 v 14.106 l -8.8203,5.0924 c -2.4993,1.443 -3.7227,-0.86916 -3.7227,-3.7228 v -11.092 c -0.24045,-3.187 0.21776,-5.8847 2.0768,-7.6014 l 7.2478,-6.1872 v -7.0711 l -5.6569,5.1265 c -2.0209,1.1668 -4.9497,-3.8007 -4.9497,-16.44 v -9.5459 c 0.02061,-0.83602 0.18884,-1.7431 1.7678,-2.8284 l 18.385,-13.612 v -17.147 c 0,-0.97227 -0.83019,-1.1956 -2.0708,-1.1956 -3.9775,0 -7.1216,7.824 -7.1216,13.216 v 9.7227 l -7.2478,4.9498 c -3.0949,0 -4.773,-0.0782 -4.773,-3.5355 v -15.91 c 0,-2.0688 0.28538,-1.943 2.4749,-4.0659 0.88951,-0.90992 6.6291,-3.8449 6.5407,-5.8336 0,0 0.99337,-5.6638 0,-5.8336 -0.60688,-0.0265 -5.6569,4.0659 -5.6569,4.0659 -1.8562,0.88388 -3.8007,-1.1048 -4.0659,-6.8943 v -20.683 l 26.399,-19.058 c 3.0782,-2.4702 5.7469,-2.5751 9.8407,-0.38756 l 21.036,10.076 12.551,-5.8336 148.49,66.645 93.692,42.073 29.875,11.667 1.0607,3.3588 -0.7071,3.8891 3.182,1.9445 2.1213,-3.3588 3.5355,0.53033 z m -28.607,-1.1248 c 0,-3.6896 -1.0501,-4.4261 -2.8758,-4.7825 -1.7892,-0.34931 -4.3742,-0.12071 -4.3742,3.2825 v 37.125 c 0,3.0006 1.8604,4.7504 4.0022,5.4646 1.3212,0.44056 3.9978,0.84889 3.9978,-1.2146 z m -10.517,-4.6212 c 0,-3.6896 -1.0501,-4.4261 -2.8758,-4.7825 -1.7892,-0.34931 -4.3742,-0.12071 -4.3742,3.2825 v 37.125 c 0,3.0006 1.8604,4.7504 4.0022,5.4646 1.3212,0.44056 3.9978,0.84889 3.9978,-1.2146 z m -10.228,-4.4942 c 0,-3.6896 -1.0501,-4.4261 -2.8758,-4.7825 -1.7892,-0.34931 -4.3742,-0.12071 -4.3742,3.2825 v 37.125 c 0,3.0006 1.8604,4.7504 4.0022,5.4646 1.3212,0.44056 3.9978,0.84889 3.9978,-1.2146 z m -10.747,-4.7223 c 0,-3.6896 -1.0501,-4.4261 -2.8758,-4.7825 -1.7892,-0.34931 -4.3742,-0.12071 -4.3742,3.2825 v 37.125 c 0,3.0006 1.8604,4.7504 4.0022,5.4646 1.3212,0.44056 3.9978,0.84889 3.9978,-1.2146 z m -11.003,-4.8346 c 0,-3.6896 -1.0501,-4.4261 -2.8758,-4.7825 -1.7892,-0.34931 -4.3742,-0.12071 -4.3742,3.2825 v 37.125 c 0,3.0006 1.8604,4.7504 4.0022,5.4646 1.3212,0.44056 3.9978,0.84889 3.9978,-1.2146 z m -10.228,-4.4942 c 0,-3.6896 -1.0501,-4.4261 -2.8758,-4.7825 -1.7892,-0.34931 -4.3742,-0.12071 -4.3742,3.2825 v 37.125 c 0,3.0006 1.8604,4.7504 4.0022,5.4646 1.3212,0.44056 3.9978,0.84889 3.9978,-1.2146 z m -11.003,-4.8346 c 0,-3.6896 -1.0501,-4.4261 -2.8758,-4.7825 -1.7892,-0.34931 -4.3742,-0.12071 -4.3742,3.2825 v 37.125 c 0,3.0006 1.8604,4.7504 4.0022,5.4646 1.3212,0.44056 3.9978,0.84889 3.9978,-1.2146 z m -10.312,-4.5314 c 0,-3.6896 -1.0501,-4.4261 -2.8758,-4.7825 -1.7892,-0.34931 -4.3742,-0.12071 -4.3742,3.2825 v 37 c 0,3.0006 1.8604,4.7504 4.0022,5.4646 1.3212,0.44056 3.9978,0.84889 3.9978,-1.2146 z m -9.9303,-4.3634 c 0,-3.6896 -1.0501,-4.4261 -2.8758,-4.7825 -1.7892,-0.34931 -4.3742,-0.12071 -4.3742,3.2825 v 37 c 0,3.0006 1.8604,4.7504 4.0022,5.4646 1.3212,0.44056 3.9978,0.84889 3.9978,-1.2146 z m -11.036,-4.8493 c 0,-3.6896 -1.0501,-4.4261 -2.8758,-4.7825 -1.7892,-0.34931 -4.3742,-0.12071 -4.3742,3.2825 v 36.875 c 0,3.0006 1.8604,4.7504 4.0022,5.4646 1.3212,0.44056 3.9978,0.84889 3.9978,-1.2146 z m -9.8104,-4.3108 c 0,-3.6896 -1.0501,-4.4261 -2.8758,-4.7825 -1.7892,-0.34931 -4.3742,-0.12071 -4.3742,3.2825 v 35.875 c 0,3.0006 1.8604,4.7504 4.0022,5.4646 1.3212,0.44056 3.9978,0.84889 3.9978,-1.2146 z m -10.064,-4.4223 c 0,-3.6896 -1.0501,-4.4261 -2.8758,-4.7825 -1.7892,-0.34931 -4.3742,-0.12071 -4.3742,3.2825 v 35.875 c 0,3.0006 1.8604,4.7504 4.0022,5.4646 1.3212,0.44056 3.9978,0.84889 3.9978,-1.2146 z m -9.952,-4.373 c 0,-3.6896 -1.0501,-4.4261 -2.8758,-4.7825 -1.7892,-0.34931 -4.3742,-0.12071 -4.3742,3.2825 v 35.875 c 0,3.0006 1.8604,4.7504 4.0022,5.4646 1.3212,0.44056 3.9978,0.84889 3.9978,-1.2146 z m -10.253,-4.5052 c 0,-3.6896 -1.0501,-4.4261 -2.8758,-4.7825 -1.7892,-0.34931 -4.3742,-0.12071 -4.3742,3.2825 v 35.875 c 0,3.0006 1.8604,4.7504 4.0022,5.4646 1.3212,0.44056 3.9978,0.84889 3.9978,-1.2146 z m -9.8746,-4.339 c 0,-3.6896 -1.0501,-4.4261 -2.8758,-4.7825 -1.7892,-0.34931 -4.3742,-0.12071 -4.3742,3.2825 v 35.875 c 0,3.0006 1.8604,4.7504 4.0022,5.4646 1.3212,0.44056 3.9978,0.84889 3.9978,-1.2146 z m -10.838,-4.7622 c 0,-3.6896 -1.0501,-4.4261 -2.8758,-4.7825 -1.7892,-0.34931 -4.3742,-0.12071 -4.3742,3.2825 v 35.875 c 0,3.0006 1.8604,4.7504 4.0022,5.4646 1.3212,0.44056 3.9978,0.84889 3.9978,-1.2146 z m -10.147,-4.4588 c 0,-3.6896 -1.0501,-4.4261 -2.8758,-4.7825 -1.7892,-0.34931 -4.3742,-0.12071 -4.3742,3.2825 v 35.875 c 0,3.0006 1.8604,4.7504 4.0022,5.4646 1.3212,0.44056 3.9978,0.84889 3.9978,-1.2146 z m -10.249,-4.5033 c 0,-3.6896 -1.0501,-4.4261 -2.8758,-4.7825 -1.7892,-0.34931 -4.3742,-0.12071 -4.3742,3.2825 v 35.875 c 0,3.0006 1.8604,4.7504 4.0022,5.4646 1.3212,0.44056 3.9978,0.84889 3.9978,-1.2146 z m -9.662,-4.2456 c 0,-3.6896 -1.0501,-4.4261 -2.8758,-4.7825 -1.7892,-0.34931 -4.3742,-0.12071 -4.3742,3.2825 v 35.875 c 0,3.0006 1.8604,4.7504 4.0022,5.4646 1.3212,0.44056 3.9978,0.84889 3.9978,-1.2146 z m -9.6615,-4.2014 c 0,-3.6896 -1.0501,-4.4261 -2.8758,-4.7825 -1.7892,-0.34931 -4.3742,-0.12071 -4.3742,3.2825 v 35.875 c 0,3.0006 1.8604,4.7504 4.0022,5.4646 1.3212,0.44056 3.9978,0.84889 3.9978,-1.2146 z m -10.047,-4.4588 c 0,-3.6896 -1.0501,-4.4261 -2.8758,-4.7825 -1.7892,-0.34931 -4.3742,-0.12071 -4.3742,3.2825 v 35.875 c 0,3.0006 1.8604,4.7504 4.0022,5.4646 1.3212,0.44056 3.9978,0.84889 3.9978,-1.2146 z m -10.337,-4.5422 c 0,-3.6896 -1.0501,-4.4261 -2.8758,-4.7825 -1.7892,-0.34931 -4.3742,-0.12071 -4.3742,3.2825 v 35.875 c 0,3.0006 1.8604,4.7504 4.0022,5.4646 1.3212,0.44056 3.9978,0.84889 3.9978,-1.2146 z m -9.869,-4.3365 c 0,-3.6896 -1.0501,-4.4261 -2.8759,-4.7825 -1.7892,-0.34931 -4.3741,-0.12071 -4.3741,3.2825 v 35.875 c 0,3.0006 1.8604,4.7504 4.0022,5.4646 1.3212,0.44056 3.9978,0.84889 3.9978,-1.2146 z m -9.662,-4.2456 c 0,-3.6896 -1.0501,-4.4261 -2.8759,-4.7825 -1.7892,-0.34931 -4.3741,-0.12071 -4.3741,3.2825 v 35.875 c 0,3.0006 1.8604,4.7504 4.0022,5.4646 1.3212,0.44056 3.9978,0.84889 3.9978,-1.2146 z m -9.8779,-4.3404 c 0,-3.6896 -1.0501,-4.4261 -2.8759,-4.7825 -1.7892,-0.34931 -4.3741,-0.12071 -4.3741,3.2825 v 35.875 c 0,3.0006 1.8604,4.7504 4.0022,5.4646 1.3212,0.44056 3.9978,0.84889 3.9978,-1.2146 z m -9.8588,-4.332 c 0,-3.6896 -1.0501,-4.4261 -2.8759,-4.7825 -1.7892,-0.34931 -4.3741,-0.12071 -4.3741,3.2825 v 35.875 c 0,3.0006 1.8604,4.7504 4.0022,5.4646 1.3212,0.44056 3.9978,0.84889 3.9978,-1.2146 z m -9.482,-4.1665 c 0,-3.6896 -1.0501,-4.4261 -2.8759,-4.7825 -1.7892,-0.34931 -4.3741,-0.12071 -4.3741,3.2825 v 35.875 c 0,3.0006 1.8604,4.7504 4.0022,5.4646 1.3212,0.44056 3.9978,0.84889 3.9978,-1.2146 z m -9.87,-4.36 c 0,-3.6896 -1.0501,-4.4261 -2.8759,-4.7825 -1.789,-0.35 -4.374,-0.13 -4.374,3.28 v 35.875 c 0,3.0006 1.8604,4.7504 4.0022,5.4646 1.3212,0.44056 3.9978,0.84889 3.9978,-1.2146 z"
           style="fill:url(#linearGradient3379);stroke:#000000;stroke-width:1px"
           inkscape:connector-curvature="0" />
        <g
           id="g3446">
          <g
             id="g3349">
            <g
               id="g3107">
              <path
                 id="path3061"
                 style="fill:url(#radialGradient3370);stroke:#000000;stroke-width:1px"
                 inkscape:connector-curvature="0"
                 d="m 45.304,551.45 7.4246,5.6569 1.0607,9.1924 -9.8995,7.955 -3.8891,2.1213 -4.0911,-0.86493 -5.75,-4.75 -0.875,-7.9375 12.062,-10.312 z" />
              <path
                 id="path3072"
                 d="m 45.312,551.44 -3.9688,1.0625 -8.4062,7.1875 3.1562,-0.84375 7.4375,5.6562 1.0625,9.1875 9.1875,-7.375 -1.0625,-9.2188 -7.4062,-5.6562 z"
                 style="fill:url(#linearGradient3372);stroke:#000000;stroke-width:1px"
                 inkscape:connector-curvature="0" />
            </g>
            <g
               id="g3129"
               transform="translate(100,43.5)">
              <path
                 id="path3131"
                 d="m 45.304,551.45 7.4246,5.6569 1.0607,9.1924 -9.8995,7.955 -3.8891,2.1213 -4.0911,-0.86493 -5.75,-4.75 -0.875,-7.9375 12.062,-10.312 z"
                 style="fill:url(#radialGradient3374);stroke:#000000;stroke-width:1px"
                 inkscape:connector-curvature="0" />
              <path
                 id="path3133"
                 style="fill:url(#linearGradient3376);stroke:#000000;stroke-width:1px"
                 inkscape:connector-curvature="0"
                 d="m 45.312,551.44 -3.9688,1.0625 -8.4062,7.1875 3.1562,-0.84375 7.4375,5.6562 1.0625,9.1875 9.1875,-7.375 -1.0625,-9.2188 -7.4062,-5.6562 z" />
            </g>
            <g
               id="g3344">
              <path
                 id="path3063"
                 d="M 130,583.74 62.875,555.115 50.5,564.49 l -2.875,3.25 1.5,15.125 3.375,5.375 62,28 9.25,-3.25 12.345,-12.869 -0.6,-13.53 z"
                 style="fill:url(#linearGradient3378);stroke:#000000;stroke-width:1px"
                 inkscape:connector-curvature="0" />
              <path
                 id="path3068"
                 d="m 57.01,568.26 58.16,26.782 4.5962,4.5962 0.64835,11.211 -5.1,2.0359 -59.336,-26.419 -4.2839,-5.9852 0.41554,-12.833 z"
                 sodipodi:nodetypes="ccccccccc"
                 style="fill:#edecec;stroke:#000000;stroke-width:1px"
                 inkscape:connector-curvature="0" />
              <path
                 id="path3139"
                 d="m 54.5,570.12 v 3.2812 l 3.375,1.5312 v -3.3438 l -3.375,-1.47 z m 4.375,1.9062 v 3.3438 l 4.0625,1.8438 v -3.4062 l -4.0625,-1.7812 z m 5.0625,2.2188 v 3.4375 l 4.0312,1.8125 v -3.4688 l -4.031,-1.78 z M 54.5,574.40125 v 4.0312 l 3.375,1.5312 v -4.0312 l -3.375,-1.5312 z m 4.375,1.9688 v 4.0312 l 4.0625,1.8438 v -4.0312 l -4.0625,-1.8438 z m 10.094,0.0937 v 3.4688 l 4.0625,1.8438 v -3.5312 l -4.0625,-1.7812 z m -5.0312,2.2188 v 4.0312 l 4.0312,1.8125 v -4.0312 l -4.0312,-1.8125 z m 10.094,0 v 3.5312 l 4.0625,1.8438 v -3.5938 l -4.0625,-1.7812 z m -19.531,0.75 v 4.8125 l 3.375,1.5312 v -4.8125 l -3.375,-1.5312 z m 24.594,1.4688 v 3.625 l 4.0625,1.8125 v -3.6562 l -4.0625,-1.7812 z m -10.125,0.0312 v 4.0312 l 4.0625,1.8438 v -4.0312 l -4.0625,-1.8438 z m -10.094,0.46875 v 4.8125 l 4.0625,1.8125 v -4.7812 l -4.0625,-1.8438 z m 25.281,1.7188 v 3.6875 l 4.0312,1.8125 v -3.75 l -4.0312,-1.75 z m -10.125,0.0937 v 4.0312 l 4.0625,1.8438 v -4.0312 l -4.0625,-1.8438 z m -10.094,0.5 v 4.7812 l 4.0312,1.8125 v -4.7812 l -4.0312,-1.8125 z m 25.25,1.5938 v 3.7812 l 4.0625,1.8125 v -3.8125 l -4.0625,-1.7812 z m -10.094,0.21875 v 4.0312 l 4.0625,1.8125 v -4.0312 l -4.0625,-1.8125 z m -10.125,0.4375 v 4.7812 l 4.0625,1.8438 v -4.7812 l -4.0625,-1.8438 z m 25.281,1.5625 v 3.8438 l 4.75,2.125 v -3.875 l -4.75,-2.0938 z m -10.094,0.28125 v 4.0312 l 4.0312,1.8125 v -4.0312 l -4.0312,-1.8125 z m -10.125,0.4375 v 4.7812 l 4.0625,1.8125 v -4.75 l -4.0625,-1.8438 z m 15.156,1.8438 v 4.0312 l 4.0625,1.8125 v -4.0312 l -4.0625,-1.8125 z m -10.094,0.46875 v 4.75 l 4.0625,1.8125 v -4.75 l -4.0625,-1.8125 z m 15.156,1.8125 v 4.0312 l 4.75,2.125 v -4.0312 l -4.75,-2.125 z m -10.094,0.46875 v 4.75 l 4.0312,1.7812 v -4.7188 l -4.0312,-1.8125 z m 20.781,0.78125 v 2.75 l 2.8125,1.3125 v -2.75 l -2.8125,-1.3125 z m 4.75,0.9375 v 5.6875 l -6.625,-2.8438 -0.375,0.90625 7,3 v 6.8125 h 1 v -6.4062 l 6.625,2.8438 0.375,-0.90625 -7,-3 v -6.0938 h -1 z m -20.5,0.5625 v 4.7188 l 4.0625,1.8125 v -4.7188 l -4.0625,-1.8125 z m 23.75,1.875 v 2.75 l 2.8125,1.3125 v -2.75 l -2.81,-1.31 z m -18.688,0.40625 v 4.7188 l 4.75,2.125 v -4.7188 l -4.75,-2.125 z m 10.375,3.7188 v 2.75 l 2.8125,1.3125 v -2.75 l -2.8125,-1.3125 z m 8.1875,3.625 v 2.75 l 2.8125,1.3125 v -2.75 l -2.8125,-1.3125 z"
                 style="fill:#755427"
                 inkscape:connector-curvature="0" />
            </g>
          </g>
          <g
             id="g3441">
            <path
               id="path3255"
               sodipodi:nodetypes="aaaaa"
               style="fill:url(#linearGradient3391);stroke:#000000;stroke-width:1px"
               inkscape:connector-curvature="0"
               d="m 170.77,589.91 c -6.4415,0.14528 -12.541,8.4083 -12.374,14.849 0.35849,13.881 14.409,31.13 28.284,30.582 6.3726,-0.25138 12.075,-8.6526 11.844,-15.026 -0.49604,-13.714 -14.035,-30.715 -27.754,-30.406 z" />
            <path
               id="path3283"
               sodipodi:nodetypes="aaaaa"
               style="fill:#1f2220"
               inkscape:connector-curvature="0"
               d="m 197.28,621.03 c 2.0219,-11.736 -9.5704,-28.403 -21.478,-28.549 -3.6072,-0.0445 -6.8539,4.8804 -6.7175,8.4853 0.41225,10.897 11.36,22.731 22.185,24.042 2.385,0.28871 5.6025,-1.6099 6.0104,-3.9775 z" />
            <path
               id="path3261"
               sodipodi:nodetypes="ssssccscccsccccscsccsccsccsccsccsccscccccc"
               style="fill:#42414a"
               inkscape:connector-curvature="0"
               d="m 177.53,595.38 c -0.85195,0.0855 -1.8475,0.39769 -2.875,1.0938 -2.74,1.8562 -3.3589,5.6501 -3.0938,8.125 0.26517,2.4749 1.3983,5.3768 2.8125,6.4375 1.4142,1.0607 2.5938,1.0625 2.5938,1.0625 l 0.16161,4.2367 c 0,0 3.1028,3.2714 6.6383,3.9786 3.5355,0.70711 7.2313,1.5973 7.2313,1.5973 l 0.375,-3.5312 4.125,0.25 c 0,0 1.2667,-9.2806 -4.125,-14.938 -5.3917,-5.6569 -4.625,-4.6562 -4.625,-4.6562 l -0.0625,2.2812 -6.5625,-2.9062 -0.15625,-2.75 c 0,0 -1.0176,-0.42367 -2.4375,-0.28125 z m 0.0312,4.1875 c 1.4142,-0.0884 2.4802,4.041 0.0937,3.6875 -2.3865,-0.35356 -1.6847,-3.334 -0.0937,-3.6875 z m 5.5,2.2812 c 1.4142,-0.0884 2.4802,4.0723 0.0937,3.7188 -2.3865,-0.35356 -1.6847,-3.3652 -0.0937,-3.7188 z m -7.6875,3.0938 c 1.4142,-0.0884 2.449,4.0723 0.0625,3.7188 -2.3865,-0.35356 -1.6535,-3.3652 -0.0625,-3.7188 z m 14.031,0.1875 c 1.4142,-0.0884 2.4802,4.0723 0.0937,3.7188 -2.3865,-0.35356 -1.6847,-3.3652 -0.0937,-3.7188 z m -9.2812,1.5938 c 1.4142,-0.0884 2.4802,4.041 0.0937,3.6875 -2.3865,-0.35356 -1.6847,-3.334 -0.0937,-3.6875 z m 5.125,2.7188 c 1.4142,-0.0884 2.4802,4.0723 0.0937,3.7188 -2.3865,-0.35356 -1.6847,-3.3652 -0.0937,-3.7188 z m 5.6562,2.5 c 1.4142,-0.0884 2.4802,4.041 0.0937,3.6875 -2.3865,-0.35356 -1.6847,-3.334 -0.0937,-3.6875 z m -12.375,0.6875 10.438,4.6875 v 3.2812 l -10.438,-4.0625 z" />
          </g>
          <path
             id="path3279"
             style="fill:none;stroke:#000000;stroke-width:1px"
             inkscape:connector-curvature="0"
             d="m 149.82,573.3 c -1.591,0.35355 -2.2981,3.3588 0.0884,3.7123 2.3865,0.35355 1.3258,-3.8007 -0.0884,-3.7123 z" />
          <g
             id="g3409"
             transform="translate(165,73.5)">
            <g
               id="g3411">
              <path
                 id="path3413"
                 d="m 45.304,551.45 7.4246,5.6569 1.0607,9.1924 -9.8995,7.955 -3.8891,2.1213 -4.0911,-0.86493 -5.75,-4.75 -0.875,-7.9375 12.062,-10.312 z"
                 style="fill:url(#radialGradient3380);stroke:#000000;stroke-width:1px"
                 inkscape:connector-curvature="0" />
              <path
                 id="path3415"
                 style="fill:url(#linearGradient3382);stroke:#000000;stroke-width:1px"
                 inkscape:connector-curvature="0"
                 d="m 45.312,551.44 -3.9688,1.0625 -8.4062,7.1875 3.1562,-0.84375 7.4375,5.6562 1.0625,9.1875 9.1875,-7.375 -1.0625,-9.2188 -7.4062,-5.6562 z" />
            </g>
            <g
               id="g3417"
               transform="translate(100,43.5)">
              <path
                 id="path3419"
                 style="fill:url(#radialGradient3381);stroke:#000000;stroke-width:1px"
                 inkscape:connector-curvature="0"
                 d="m 45.304,551.45 7.4246,5.6569 1.0607,9.1924 -9.8995,7.955 -3.8891,2.1213 -4.0911,-0.86493 -5.75,-4.75 -0.875,-7.9375 12.062,-10.312 z" />
              <path
                 id="path3421"
                 d="m 45.312,551.44 -3.9688,1.0625 -8.4062,7.1875 3.1562,-0.84375 7.4375,5.6562 1.0625,9.1875 9.1875,-7.375 -1.0625,-9.2188 -7.4062,-5.6562 z"
                 style="fill:url(#linearGradient3383);stroke:#000000;stroke-width:1px"
                 inkscape:connector-curvature="0" />
            </g>
            <g
               id="g3423">
              <path
                 id="path3425"
                 style="fill:url(#linearGradient3389);stroke:#000000;stroke-width:1px"
                 inkscape:connector-curvature="0"
                 d="M 130,583.74 62.875,555.115 50.5,564.49 l -2.875,3.25 1.5,15.125 3.375,5.375 62,28 9.25,-3.25 12.345,-12.869 -0.6,-13.53 z" />
              <path
                 id="path3427"
                 sodipodi:nodetypes="ccccccccc"
                 style="fill:#edecec;stroke:#000000;stroke-width:1px"
                 inkscape:connector-curvature="0"
                 d="m 57.01,568.26 58.16,26.782 4.5962,4.5962 0.64835,11.211 -5.1,2.0359 -59.336,-26.419 -4.2839,-5.9852 0.41554,-12.833 z" />
              <path
                 id="path3429"
                 style="fill:#755427"
                 inkscape:connector-curvature="0"
                 d="m 54.5,570.12 v 3.2812 l 3.375,1.5312 v -3.3438 l -3.375,-1.47 z m 4.375,1.9062 v 3.3438 l 4.0625,1.8438 v -3.4062 l -4.0625,-1.7812 z m 5.0625,2.2188 v 3.4375 l 4.0312,1.8125 v -3.4688 l -4.031,-1.78 z M 54.5,574.40125 v 4.0312 l 3.375,1.5312 v -4.0312 l -3.375,-1.5312 z m 4.375,1.9688 v 4.0312 l 4.0625,1.8438 v -4.0312 l -4.0625,-1.8438 z m 10.094,0.0937 v 3.4688 l 4.0625,1.8438 v -3.5312 l -4.0625,-1.7812 z m -5.0312,2.2188 v 4.0312 l 4.0312,1.8125 v -4.0312 l -4.0312,-1.8125 z m 10.094,0 v 3.5312 l 4.0625,1.8438 v -3.5938 l -4.0625,-1.7812 z m -19.531,0.75 v 4.8125 l 3.375,1.5312 v -4.8125 l -3.375,-1.5312 z m 24.594,1.4688 v 3.625 l 4.0625,1.8125 v -3.6562 l -4.0625,-1.7812 z m -10.125,0.0312 v 4.0312 l 4.0625,1.8438 v -4.0312 l -4.0625,-1.8438 z m -10.094,0.46875 v 4.8125 l 4.0625,1.8125 v -4.7812 l -4.0625,-1.8438 z m 25.281,1.7188 v 3.6875 l 4.0312,1.8125 v -3.75 l -4.0312,-1.75 z m -10.125,0.0937 v 4.0312 l 4.0625,1.8438 v -4.0312 l -4.0625,-1.8438 z m -10.094,0.5 v 4.7812 l 4.0312,1.8125 v -4.7812 l -4.0312,-1.8125 z m 25.25,1.5938 v 3.7812 l 4.0625,1.8125 v -3.8125 l -4.0625,-1.7812 z m -10.094,0.21875 v 4.0312 l 4.0625,1.8125 v -4.0312 l -4.0625,-1.8125 z m -10.125,0.4375 v 4.7812 l 4.0625,1.8438 v -4.7812 l -4.0625,-1.8438 z m 25.281,1.5625 v 3.8438 l 4.75,2.125 v -3.875 l -4.75,-2.0938 z m -10.094,0.28125 v 4.0312 l 4.0312,1.8125 v -4.0312 l -4.0312,-1.8125 z m -10.125,0.4375 v 4.7812 l 4.0625,1.8125 v -4.75 l -4.0625,-1.8438 z m 15.156,1.8438 v 4.0312 l 4.0625,1.8125 v -4.0312 l -4.0625,-1.8125 z m -10.094,0.46875 v 4.75 l 4.0625,1.8125 v -4.75 l -4.0625,-1.8125 z m 15.156,1.8125 v 4.0312 l 4.75,2.125 v -4.0312 l -4.75,-2.125 z m -10.094,0.46875 v 4.75 l 4.0312,1.7812 v -4.7188 l -4.0312,-1.8125 z m 20.781,0.78125 v 2.75 l 2.8125,1.3125 v -2.75 l -2.8125,-1.3125 z m 4.75,0.9375 v 5.6875 l -6.625,-2.8438 -0.375,0.90625 7,3 v 6.8125 h 1 v -6.4062 l 6.625,2.8438 0.375,-0.90625 -7,-3 v -6.0938 h -1 z m -20.5,0.5625 v 4.7188 l 4.0625,1.8125 v -4.7188 l -4.0625,-1.8125 z m 23.75,1.875 v 2.75 l 2.8125,1.3125 v -2.75 l -2.81,-1.31 z m -18.688,0.40625 v 4.7188 l 4.75,2.125 v -4.7188 l -4.75,-2.125 z m 10.375,3.7188 v 2.75 l 2.8125,1.3125 v -2.75 l -2.8125,-1.3125 z m 8.1875,3.625 v 2.75 l 2.8125,1.3125 v -2.75 l -2.8125,-1.3125 z" />
            </g>
          </g>
        </g>
      </g>
    </g>
  </g>
</svg>
